<svg width="30" height="25" viewBox="0 0 30 25" fill="none" xmlns="http://www.w3.org/2000/svg">
	<mask id="path-1-inside-1_1696_808" fill="white">
		<path fill-rule="evenodd" clip-rule="evenodd" d="M5.5 1H0L4 16.5H9H9.5H14.7895L18.5 1H13L9.25 15.5312L5.5 1Z" />
	</mask>
	<path fill-rule="evenodd" clip-rule="evenodd" d="M5.5 1H0L4 16.5H9H9.5H14.7895L18.5 1H13L9.25 15.5312L5.5 1Z" fill="#ED303B" />
	<path d="M0 1V0.7H-0.387248L-0.290483 1.07496L0 1ZM5.5 1L5.79048 0.925037L5.73241 0.7H5.5V1ZM4 16.5L3.70952 16.575L3.76759 16.8H4V16.5ZM14.7895 16.5V16.8H15.0261L15.0812 16.5698L14.7895 16.5ZM18.5 1L18.7918 1.06984L18.8803 0.7H18.5V1ZM13 1V0.7H12.7676L12.7095 0.925037L13 1ZM9.25 15.5312L8.95952 15.6062H9.54048L9.25 15.5312ZM0 1.3H5.5V0.7H0V1.3ZM4.29048 16.425L0.290483 0.925037L-0.290483 1.07496L3.70952 16.575L4.29048 16.425ZM9 16.2H4V16.8H9V16.2ZM9 16.8H9.5V16.2H9V16.8ZM9.5 16.8H14.7895V16.2H9.5V16.8ZM15.0812 16.5698L18.7918 1.06984L18.2082 0.930157L14.4977 16.4302L15.0812 16.5698ZM18.5 0.7H13V1.3H18.5V0.7ZM12.7095 0.925037L8.95952 15.4563L9.54048 15.6062L13.2905 1.07496L12.7095 0.925037ZM5.20952 1.07496L8.95952 15.6062L9.54048 15.4563L5.79048 0.925037L5.20952 1.07496Z" fill="#B6B4B4" mask="url(#path-1-inside-1_1696_808)" />
	<path d="M21.7897 1.08246L21.7867 16.6863L27.1187 16.6857L27.1183 1.08246L21.7897 1.08246Z" fill="#ED303B" stroke="#B6B4B4" stroke-width="0.3" />
	<circle cx="24.5" cy="21.5" r="3.35" fill="#FED403" stroke="#B6B4B4" stroke-width="0.3" />
</svg>
