<svg width="24" height="22" viewBox="0 0 24 22" fill="none" xmlns="http://www.w3.org/2000/svg">
	<path d="M18.1715 6.05398C17.9347 6.01768 17.6879 6.00861 17.4313 6.00861H7.5612C7.28483 6.00861 7.01834 6.02676 6.76172 6.06307C6.8999 5.80894 7.0973 5.573 7.33418 5.35518L10.542 2.39644C11.8942 1.16212 14.0853 1.16212 15.4375 2.39644L17.1648 4.00283C17.7965 4.57461 18.1321 5.30069 18.1715 6.05398Z" stroke="white" stroke-width="1.5" stroke-linecap="round" stroke-linejoin="round" />
	<path d="M9.53279 16.8979C9.53279 17.5786 9.32552 18.223 8.96033 18.7675C8.27929 19.8203 7.02579 20.5283 5.58476 20.5283C4.14372 20.5283 2.89022 19.8203 2.20918 18.7675C1.84399 18.223 1.63672 17.5786 1.63672 16.8979C1.63672 14.8922 3.40347 13.2676 5.58476 13.2676C7.76605 13.2676 9.53279 14.8922 9.53279 16.8979Z" fill="white" stroke="white" stroke-width="1.5" stroke-miterlimit="10" stroke-linecap="round" stroke-linejoin="round" />
	<path d="M22.3622 10.5457V15.0837C22.3622 17.8064 20.3882 19.6216 17.4274 19.6216H8.17961C8.48556 19.3856 8.75204 19.0952 8.9593 18.7685C9.32448 18.2239 9.53174 17.5795 9.53174 16.8988C9.53174 14.8931 7.76509 13.2685 5.58391 13.2685C4.39957 13.2685 3.34352 13.7495 2.62305 14.5028V10.5457C2.62305 8.07711 4.24165 6.35269 6.75839 6.06227C7.015 6.02596 7.28148 6.00781 7.55783 6.00781H17.4274C17.684 6.00781 17.9307 6.01688 18.1676 6.05318C20.7139 6.32546 22.3622 8.05896 22.3622 10.5457Z" stroke="white" stroke-width="1.5" stroke-linecap="round" stroke-linejoin="round" />
	<path d="M22.3628 11H19.4018C18.316 11 17.4277 11.8168 17.4277 12.8152C17.4277 13.8135 18.316 14.6303 19.4018 14.6303H22.3628" stroke="white" stroke-width="1.5" stroke-linecap="round" stroke-linejoin="round" />
</svg>
