<svg width="24" height="22" viewBox="0 0 24 22" fill="none" xmlns="http://www.w3.org/2000/svg">
	<path d="M18.1696 6.05398C17.9327 6.01768 17.686 6.00861 17.4293 6.00861H7.55924C7.28288 6.00861 7.01639 6.02676 6.75977 6.06307C6.89795 5.80894 7.09535 5.573 7.33223 5.35518L10.54 2.39644C11.8922 1.16212 14.0834 1.16212 15.4356 2.39644L17.1628 4.00283C17.7945 4.57461 18.1301 5.30069 18.1696 6.05398Z" stroke="white" stroke-width="1.5" stroke-linecap="round" stroke-linejoin="round" />
	<path d="M9.53084 16.8979C9.53084 17.5786 9.32357 18.223 8.95837 18.7675C8.27734 19.8203 7.02384 20.5283 5.5828 20.5283C4.14177 20.5283 2.88827 19.8203 2.20723 18.7675C1.84204 18.223 1.63477 17.5786 1.63477 16.8979C1.63477 14.8922 3.40151 13.2676 5.5828 13.2676C7.76409 13.2676 9.53084 14.8922 9.53084 16.8979Z" fill="white" stroke="white" stroke-width="1.5" stroke-miterlimit="10" stroke-linecap="round" stroke-linejoin="round" />
	<path d="M22.3602 10.5457V15.0837C22.3602 17.8064 20.3863 19.6216 17.4254 19.6216H8.17765C8.48361 19.3856 8.75009 19.0952 8.95735 18.7685C9.32252 18.2239 9.52978 17.5795 9.52978 16.8988C9.52978 14.8931 7.76313 13.2685 5.58196 13.2685C4.39761 13.2685 3.34157 13.7495 2.62109 14.5028V10.5457C2.62109 8.07711 4.2397 6.35269 6.75644 6.06227C7.01305 6.02596 7.27952 6.00781 7.55587 6.00781H17.4254C17.682 6.00781 17.9288 6.01688 18.1656 6.05318C20.712 6.32546 22.3602 8.05896 22.3602 10.5457Z" stroke="white" stroke-width="1.5" stroke-linecap="round" stroke-linejoin="round" />
	<path d="M22.3608 11H19.3998C18.3141 11 17.4258 11.8168 17.4258 12.8152C17.4258 13.8135 18.3141 14.6303 19.3998 14.6303H22.3608" stroke="white" stroke-width="1.5" stroke-linecap="round" stroke-linejoin="round" />
</svg>
