<svg width="21" height="21" viewBox="0 0 21 21" fill="none" xmlns="http://www.w3.org/2000/svg">
	<path d="M17.9978 0C17.9087 0 17.8173 0.0183728 17.7259 0.0603675L4.21822 6.13911H0.374953C0.168729 6.13911 0 6.33333 0 6.5748V14.4226C0 14.664 0.168729 14.8583 0.374953 14.8583H2.75591C2.6692 15.1627 2.34375 15.8921 2.34375 16.2201C1.95312 18.4729 3.52676 19.8246 5.07812 19.8246C6.3764 19.8246 7.82949 17.9633 8.15289 16.6299L17.7283 20.9396C17.8196 20.979 17.911 21 18.0001 21C18.3961 21 18.75 20.6273 18.75 20.1286V0.871391C18.7477 0.372703 18.3961 0 17.9978 0ZM5.43682 17.0682C4.8158 17.0682 4.31196 16.5066 4.31196 15.8137C4.31196 15.5197 4.40336 15.2388 4.56974 15.0157L6.55934 15.9108C6.51247 16.5564 6.02737 17.0682 5.43682 17.0682Z" fill="#1877F2" />
	<ellipse cx="20.25" cy="11.5865" rx="0.75" ry="5.06897" fill="#1877F2" />
</svg>
