<svg width="21" height="20" viewBox="0 0 21 20" fill="none" xmlns="http://www.w3.org/2000/svg">
	<path d="M3.11111 6.98372V14.9946M7.86111 6.98372V14.9946M13.1389 6.98372V14.9946M17.8889 6.98372V14.9946M1 16.5967L1 17.3978C1 17.9586 1 18.239 1.11505 18.4532C1.21625 18.6417 1.37773 18.7949 1.57634 18.8909C1.80214 19 2.09772 19 2.68889 19H18.3111C18.9023 19 19.1979 19 19.4237 18.8909C19.6223 18.7949 19.7838 18.6417 19.885 18.4532C20 18.239 20 17.9586 20 17.3978V16.5967C20 16.0359 20 15.7555 19.885 15.5413C19.7838 15.3529 19.6223 15.1997 19.4237 15.1037C19.1979 14.9946 18.9023 14.9946 18.3111 14.9946H2.68889C2.09772 14.9946 1.80214 14.9946 1.57634 15.1037C1.37773 15.1997 1.21625 15.3529 1.11505 15.5413C1 15.7555 1 16.0359 1 16.5967ZM10.1336 1.05281L2.32252 2.69948C1.85062 2.79897 1.61467 2.84871 1.43855 2.96908C1.2832 3.07525 1.16121 3.21951 1.08566 3.38641C1 3.57562 1 3.80492 1 4.2635L1 5.38154C1 5.94236 1 6.22276 1.11505 6.43696C1.21625 6.62538 1.37773 6.77857 1.57634 6.87457C1.80214 6.98371 2.09772 6.98371 2.68889 6.98371H18.3111C18.9023 6.98371 19.1979 6.98371 19.4237 6.87457C19.6223 6.77857 19.7838 6.62538 19.885 6.43696C20 6.22276 20 5.94236 20 5.38154V4.2635C20 3.80492 20 3.57562 19.9143 3.38641C19.8388 3.21951 19.7168 3.07525 19.5615 2.96908C19.3853 2.84871 19.1494 2.79897 18.6775 2.69949L10.8664 1.05281C10.7296 1.02399 10.6613 1.00957 10.5922 1.00383C10.5309 0.998724 10.4691 0.998724 10.4078 1.00383C10.3387 1.00957 10.2704 1.02399 10.1336 1.05281Z" stroke="#52525B" stroke-width="1.4" stroke-linecap="round" stroke-linejoin="round" />
</svg>
