<svg width="23" height="22" viewBox="0 0 23 22" fill="none" xmlns="http://www.w3.org/2000/svg">
	<path d="M17.7514 5.80949C17.5114 5.7714 17.2614 5.76189 17.0014 5.76189H7.00141C6.72141 5.76189 6.45141 5.78093 6.19141 5.81903C6.33141 5.55236 6.53141 5.30477 6.77141 5.0762L10.0214 1.97143C11.3914 0.67619 13.6114 0.67619 14.9814 1.97143L16.7314 3.6571C17.3714 4.2571 17.7114 5.01902 17.7514 5.80949Z" stroke="#52525B" stroke-width="1.5" stroke-linecap="round" stroke-linejoin="round" />
	<path d="M9 17.1904C9 17.9047 8.79 18.5809 8.42 19.1523C7.73 20.257 6.46 20.9999 5 20.9999C3.54 20.9999 2.27 20.257 1.58 19.1523C1.21 18.5809 1 17.9047 1 17.1904C1 15.0856 2.79 13.3809 5 13.3809C7.21 13.3809 9 15.0856 9 17.1904Z" stroke="#52525B" stroke-width="1.5" stroke-miterlimit="10" stroke-linecap="round" stroke-linejoin="round" />
	<path d="M6.49172 17.1699H3.51172" stroke="#52525B" stroke-width="1.5" stroke-miterlimit="10" stroke-linecap="round" stroke-linejoin="round" />
	<path d="M5 15.7793V18.6269" stroke="#52525B" stroke-width="1.5" stroke-miterlimit="10" stroke-linecap="round" stroke-linejoin="round" />
	<path d="M22 10.5236V15.2855C22 18.1427 20 20.0474 17 20.0474H7.63C7.94 19.7998 8.21 19.495 8.42 19.1522C8.79 18.5808 9 17.9046 9 17.1903C9 15.0855 7.21 13.3808 5 13.3808C3.8 13.3808 2.73 13.8855 2 14.676V10.5236C2 7.93315 3.64 6.12362 6.19 5.81886C6.45 5.78076 6.72 5.76172 7 5.76172H17C17.26 5.76172 17.51 5.77123 17.75 5.80933C20.33 6.09504 22 7.9141 22 10.5236Z" stroke="#52525B" stroke-width="1.5" stroke-linecap="round" stroke-linejoin="round" />
	<path d="M22 11H19C17.9 11 17 11.8571 17 12.9048C17 13.9524 17.9 14.8095 19 14.8095H22" stroke="#52525B" stroke-width="1.5" stroke-linecap="round" stroke-linejoin="round" />
</svg>
